<svg width="693" height="610" viewBox="0 0 693 610" fill="none" xmlns="http://www.w3.org/2000/svg">
<path d="M67.2494 67.8386C36.9895 98.4156 20 139.812 20 182.966C20 226.12 36.9895 267.517 67.2494 298.094L346.323 581L625.71 298.408C655.994 267.844 673 226.443 673 183.281C673 140.119 655.994 98.7175 625.71 68.1535C610.825 52.9986 593.099 40.9667 573.561 32.7549C554.022 24.5432 533.059 20.3149 511.884 20.3149C490.71 20.3149 469.747 24.5432 450.208 32.7549C430.669 40.9667 412.944 52.9986 398.059 68.1535L346.636 120.175L294.9 67.8386C280.015 52.6837 262.29 40.6518 242.751 32.4401C223.212 24.2284 202.249 20 181.075 20C159.9 20 138.937 24.2284 119.398 32.4401C99.8595 40.6518 82.1343 52.6837 67.2494 67.8386V67.8386Z" stroke="#ED4B09" stroke-width="40" stroke-miterlimit="10"/>
</svg>
