<svg width="225" height="294" viewBox="0 0 225 294" fill="none" xmlns="http://www.w3.org/2000/svg">
<path d="M32.6479 32.9387C18.1435 47.6004 10 67.45 10 88.1424C10 108.835 18.1435 128.684 32.6479 143.346L166.415 279L300.332 143.497C314.848 128.842 323 108.99 323 88.2934C323 67.5971 314.848 47.7451 300.332 33.0896C293.198 25.8228 284.702 20.0535 275.336 16.116C265.971 12.1785 255.922 10.151 245.773 10.151C235.624 10.151 225.575 12.1785 216.21 16.116C206.845 20.0535 198.348 25.8228 191.214 33.0896L166.565 58.0341L141.767 32.9387C134.632 25.6719 126.136 19.9026 116.77 15.965C107.405 12.0275 97.3566 10 87.2073 10C77.058 10 67.0095 12.0275 57.6441 15.965C48.2788 19.9026 39.7826 25.6719 32.6479 32.9387V32.9387Z" stroke="#ED4B09" stroke-width="20" stroke-miterlimit="10"/>
</svg>
