<svg width="1920" height="965" viewBox="0 0 1920 965" fill="none" xmlns="http://www.w3.org/2000/svg">
<path d="M98.7032 4.77534C95.6911 7.82758 94 11.9598 94 16.2676C94 20.5753 95.6911 24.7075 98.7032 27.7598L126.482 56L154.293 27.7912C157.307 24.7403 159 20.6075 159 16.299C159 11.9905 157.307 7.85772 154.293 4.80677C152.811 3.29397 151.047 2.09293 149.102 1.27322C147.157 0.45351 145.07 0.031429 142.962 0.031429C140.855 0.031429 138.768 0.45351 136.823 1.27322C134.878 2.09293 133.114 3.29397 131.632 4.80677L126.514 9.99966L121.364 4.77534C119.882 3.26254 118.118 2.0615 116.173 1.24179C114.228 0.422081 112.141 0 110.033 0C107.926 0 105.839 0.422081 103.894 1.24179C101.949 2.0615 100.185 3.26254 98.7032 4.77534Z" fill="#F2F2F2"/>
<path d="M965.572 172.628C962.003 176.225 960 181.096 960 186.172C960 191.249 962.003 196.12 965.572 199.717L998.479 233L1031.42 199.754C1034.99 196.158 1037 191.287 1037 186.21C1037 181.132 1034.99 176.261 1031.42 172.665C1029.67 170.882 1027.58 169.467 1025.27 168.501C1022.97 167.534 1020.5 167.037 1018 167.037C1015.5 167.037 1013.03 167.534 1010.73 168.501C1008.43 169.467 1006.33 170.882 1004.58 172.665L998.516 178.785L992.415 172.628C990.66 170.845 988.57 169.43 986.266 168.464C983.962 167.497 981.49 167 978.993 167C976.497 167 974.025 167.497 971.721 168.464C969.417 169.43 967.327 170.845 965.572 172.628Z" fill="#FFCDCD"/>
<path d="M959.585 872.651C955.368 876.903 953 882.658 953 888.658C953 894.658 955.368 900.414 959.585 904.665L998.475 944L1037.41 904.709C1041.63 900.46 1044 894.703 1044 888.702C1044 882.701 1041.63 876.945 1037.41 872.695C1035.34 870.588 1032.87 868.915 1030.14 867.773C1027.42 866.632 1024.5 866.044 1021.55 866.044C1018.6 866.044 1015.68 866.632 1012.95 867.773C1010.23 868.915 1007.76 870.588 1005.69 872.695L998.519 879.928L991.309 872.651C989.235 870.544 986.765 868.871 984.042 867.73C981.319 866.588 978.398 866 975.447 866C972.496 866 969.575 866.588 966.852 867.73C964.129 868.871 961.659 870.544 959.585 872.651Z" fill="#F2F2F2"/>
<path d="M1529.58 34.6514C1525.37 38.9027 1523 44.6584 1523 50.6584C1523 56.6584 1525.37 62.4141 1529.58 66.6654L1568.48 106L1607.41 66.7092C1611.63 62.4597 1614 56.7033 1614 50.7022C1614 44.701 1611.63 38.9447 1607.41 34.6951C1605.34 32.588 1602.87 30.9152 1600.14 29.7734C1597.42 28.6317 1594.5 28.0438 1591.55 28.0438C1588.6 28.0438 1585.68 28.6317 1582.95 29.7734C1580.23 30.9152 1577.76 32.588 1575.69 34.6951L1568.52 41.9281L1561.31 34.6514C1559.23 32.5443 1556.76 30.8714 1554.04 29.7296C1551.32 28.5879 1548.4 28 1545.45 28C1542.5 28 1539.57 28.5879 1536.85 29.7296C1534.13 30.8714 1531.66 32.5443 1529.58 34.6514Z" fill="#FFCDCD"/>
<path d="M1724.4 317.582C1708.13 333.933 1699 356.071 1699 379.148C1699 402.225 1708.13 424.362 1724.4 440.713L1874.4 592L2024.58 440.882C2040.86 424.537 2050 402.397 2050 379.316C2050 356.235 2040.86 334.095 2024.58 317.751C2016.58 309.646 2007.05 303.212 1996.55 298.821C1986.05 294.43 1974.78 292.168 1963.4 292.168C1952.02 292.168 1940.75 294.43 1930.25 298.821C1919.74 303.212 1910.21 309.646 1902.21 317.751L1874.57 345.57L1846.76 317.582C1838.76 309.478 1829.24 303.044 1818.73 298.652C1808.23 294.261 1796.96 292 1785.58 292C1774.2 292 1762.93 294.261 1752.43 298.652C1741.93 303.044 1732.4 309.478 1724.4 317.582Z" fill="#F2F2F2"/>
<path d="M1741.05 921.093C1738.46 923.709 1737 927.251 1737 930.944C1737 934.636 1738.46 938.178 1741.05 940.794L1764.98 965L1788.94 940.821C1791.54 938.206 1793 934.664 1793 930.971C1793 927.278 1791.54 923.735 1788.94 921.12C1787.67 919.823 1786.15 918.794 1784.47 918.091C1782.8 917.389 1781 917.027 1779.18 917.027C1777.37 917.027 1775.57 917.389 1773.89 918.091C1772.22 918.794 1770.7 919.823 1769.42 921.12L1765.01 925.571L1760.57 921.093C1759.3 919.796 1757.78 918.767 1756.1 918.064C1754.43 917.362 1752.63 917 1750.81 917C1749 917 1747.2 917.362 1745.52 918.064C1743.85 918.767 1742.33 919.796 1741.05 921.093Z" fill="#FFCDCD"/>
<path d="M-70.7326 641.349C-80.5103 651.16 -86 664.442 -86 678.289C-86 692.135 -80.5103 705.417 -70.7326 715.228L19.4428 806L109.719 715.329C119.505 705.522 125 692.238 125 678.39C125 664.541 119.505 651.257 109.719 641.45C104.91 636.588 99.1822 632.727 92.8688 630.092C86.5554 627.458 79.7815 626.101 72.9397 626.101C66.0978 626.101 59.3239 627.458 53.0105 630.092C46.6971 632.727 40.9697 636.588 36.16 641.45L19.5439 658.142L2.82674 641.349C-1.98293 636.487 -7.71038 632.626 -14.0238 629.991C-20.3372 627.357 -27.1111 626 -33.9529 626C-40.7948 626 -47.5687 627.357 -53.8821 629.991C-60.1955 632.626 -65.9229 636.487 -70.7326 641.349Z" fill="#FFCDCD"/>
</svg>
