<svg width="219" height="80" viewBox="0 0 219 80" fill="none" xmlns="http://www.w3.org/2000/svg">
<path d="M69.7292 6.82191C65.4196 11.1823 63 17.0855 63 23.2394C63 29.3933 65.4196 35.2965 69.7292 39.6568L109.475 80L149.265 39.7017C153.578 35.3432 156 29.4393 156 23.2843C156 17.1292 153.578 11.2253 149.265 6.86681C147.145 4.70568 144.621 2.9899 141.838 1.81889C139.055 0.647872 136.07 0.0448985 133.054 0.0448985C130.038 0.0448985 127.053 0.647872 124.27 1.81889C121.487 2.9899 118.963 4.70568 116.843 6.86681L109.519 14.2852L102.151 6.82191C100.031 4.66078 97.5068 2.945 94.7241 1.77399C91.9414 0.602973 88.9558 0 85.9402 0C82.9246 0 79.9389 0.602973 77.1562 1.77399C74.3736 2.945 71.8491 4.66078 69.7292 6.82191V6.82191Z" fill="#ED4B09"/>
<path d="M3.69023 39.7521C1.32689 42.1502 0 45.397 0 48.7817C0 52.1663 1.32689 55.4131 3.69023 57.8113L25.4862 80L47.3066 57.836C49.6718 55.4388 51 52.1916 51 48.8064C51 45.4211 49.6718 42.1739 47.3066 39.7767C46.144 38.5881 44.7597 37.6444 43.2337 37.0004C41.7077 36.3563 40.0704 36.0247 38.4167 36.0247C36.763 36.0247 35.1257 36.3563 33.5997 37.0004C32.0737 37.6444 30.6894 38.5881 29.5268 39.7767L25.5106 43.8569L21.47 39.7521C20.3074 38.5634 18.9231 37.6198 17.3971 36.9757C15.8711 36.3316 14.2338 36 12.5801 36C10.9264 36 9.28909 36.3316 7.7631 36.9757C6.23711 37.6198 4.85275 38.5634 3.69023 39.7521V39.7521Z" fill="white"/>
<path d="M171.69 39.7521C169.327 42.1502 168 45.397 168 48.7817C168 52.1663 169.327 55.4131 171.69 57.8113L193.486 80L215.307 57.836C217.672 55.4388 219 52.1916 219 48.8064C219 45.4211 217.672 42.1739 215.307 39.7767C214.144 38.5881 212.76 37.6444 211.234 37.0004C209.708 36.3563 208.07 36.0247 206.417 36.0247C204.763 36.0247 203.126 36.3563 201.6 37.0004C200.074 37.6444 198.689 38.5881 197.527 39.7767L193.511 43.8569L189.47 39.7521C188.307 38.5634 186.923 37.6198 185.397 36.9757C183.871 36.3316 182.234 36 180.58 36C178.926 36 177.289 36.3316 175.763 36.9757C174.237 37.6198 172.853 38.5634 171.69 39.7521V39.7521Z" fill="white"/>
</svg>
