<svg width="186" height="185" viewBox="0 0 186 185" fill="none" xmlns="http://www.w3.org/2000/svg">
<g filter="url(#filter0_d_0_1)">
<ellipse cx="93" cy="92.5" rx="53" ry="52.5" fill="white"/>
</g>
<path d="M71.6902 75.7521C69.3269 78.1502 68 81.397 68 84.7817C68 88.1663 69.3269 91.4131 71.6902 93.8113L93.4862 116L115.307 93.836C117.672 91.4388 119 88.1916 119 84.8064C119 81.4211 117.672 78.1739 115.307 75.7767C114.144 74.5881 112.76 73.6444 111.234 73.0004C109.708 72.3563 108.07 72.0247 106.417 72.0247C104.763 72.0247 103.126 72.3563 101.6 73.0004C100.074 73.6444 98.6894 74.5881 97.5268 75.7767L93.5106 79.8569L89.47 75.7521C88.3074 74.5634 86.9231 73.6198 85.3971 72.9757C83.8711 72.3316 82.2338 72 80.5801 72C78.9264 72 77.2891 72.3316 75.7631 72.9757C74.2371 73.6198 72.8528 74.5634 71.6902 75.7521Z" fill="#ED4B09"/>
<defs>
<filter id="filter0_d_0_1" x="0" y="0" width="186" height="185" filterUnits="userSpaceOnUse" color-interpolation-filters="sRGB">
<feFlood flood-opacity="0" result="BackgroundImageFix"/>
<feColorMatrix in="SourceAlpha" type="matrix" values="0 0 0 0 0 0 0 0 0 0 0 0 0 0 0 0 0 0 127 0" result="hardAlpha"/>
<feOffset/>
<feGaussianBlur stdDeviation="20"/>
<feComposite in2="hardAlpha" operator="out"/>
<feColorMatrix type="matrix" values="0 0 0 0 0 0 0 0 0 0 0 0 0 0 0 0 0 0 0.08 0"/>
<feBlend mode="normal" in2="BackgroundImageFix" result="effect1_dropShadow_0_1"/>
<feBlend mode="normal" in="SourceGraphic" in2="effect1_dropShadow_0_1" result="shape"/>
</filter>
</defs>
</svg>
