<svg width="1055" height="1049" viewBox="0 0 1055 1049" fill="none" xmlns="http://www.w3.org/2000/svg">
<path d="M158.529 943.839C142.82 959.716 134 981.21 134 1003.62C134 1026.02 142.82 1047.52 158.529 1063.39L303.408 1210.29L448.45 1063.56C464.171 1047.69 473 1026.19 473 1003.78C473 981.369 464.171 959.873 448.45 944.003C440.722 936.134 431.52 929.887 421.377 925.623C411.234 921.359 400.35 919.163 389.358 919.163C378.366 919.163 367.483 921.359 357.339 925.623C347.196 929.887 337.994 936.134 330.267 944.003L303.571 971.014L276.712 943.839C268.985 935.97 259.783 929.723 249.64 925.459C239.496 921.195 228.613 919 217.621 919C206.628 919 195.745 921.195 185.602 925.459C175.458 929.723 166.257 935.97 158.529 943.839V943.839Z" stroke="white" stroke-width="40" stroke-miterlimit="10"/>
<path d="M986.505 656.649C979.137 664.094 975 674.174 975 684.683C975 695.191 979.137 705.271 986.505 712.716L1054.46 781.604L1122.49 712.793C1129.86 705.351 1134 695.269 1134 684.759C1134 674.249 1129.86 664.168 1122.49 656.725C1118.86 653.035 1114.54 650.105 1109.79 648.106C1105.03 646.106 1099.93 645.077 1094.77 645.077C1089.61 645.077 1084.51 646.106 1079.75 648.106C1074.99 650.105 1070.68 653.035 1067.05 656.725L1054.53 669.393L1041.94 656.649C1038.31 652.959 1034 650.029 1029.24 648.029C1024.48 646.03 1019.38 645 1014.22 645C1009.06 645 1003.96 646.03 999.203 648.029C994.445 650.029 990.129 652.959 986.505 656.649V656.649Z" stroke="white" stroke-width="40" stroke-miterlimit="10"/>
<path d="M33.3861 -57.7647C24.8132 -49.1147 20 -37.404 20 -25.1961C20 -12.9881 24.8132 -1.27745 33.3861 7.37252L112.45 87.4044L191.602 7.46159C200.182 -1.18473 205 -12.8968 205 -25.107C205 -37.3173 200.182 -49.0293 191.602 -57.6756C187.385 -61.9628 182.364 -65.3666 176.828 -67.6896C171.293 -70.0126 165.353 -71.2088 159.355 -71.2088C153.356 -71.2088 147.417 -70.0126 141.881 -67.6896C136.346 -65.3666 131.324 -61.9628 127.107 -57.6756L112.539 -42.9591L97.8813 -57.7647C93.6643 -62.0519 88.6426 -65.4556 83.1071 -67.7787C77.5716 -70.1017 71.6325 -71.2979 65.6337 -71.2979C59.6349 -71.2979 53.6957 -70.1017 48.1603 -67.7787C42.6248 -65.4556 37.6031 -62.0519 33.3861 -57.7647V-57.7647Z" stroke="white" stroke-width="40" stroke-miterlimit="10"/>
</svg>
