<svg width="312" height="93" viewBox="0 0 312 93" fill="none" xmlns="http://www.w3.org/2000/svg">
<path d="M90.9302 46.3534C90.9302 65.777 78.6737 82.3393 61.4707 88.727L61.4707 46.3534C61.4707 33.4368 69.6462 22.4282 81.1067 18.2218C87.2558 25.9409 90.9302 35.7174 90.9302 46.3534ZM23.1451 7.22037C39.9676 -2.49143 60.4402 -0.158851 74.5739 11.5445L37.8749 32.7312C26.688 39.1896 13.0659 37.6141 3.69263 29.793C7.30337 20.6085 13.9335 12.5384 23.1451 7.22037ZM23.1462 85.4848C6.32371 75.773 -1.89238 56.8781 1.17685 38.7871L37.8759 59.9739C49.0628 66.4322 54.5094 79.0162 52.4222 91.0437C42.6623 92.5092 32.3578 90.8028 23.1462 85.4848Z" fill="#1A1A1A" stroke="#1A1A1A"/>
<path d="M128.858 62.3582H147.318V76.815H109.708V15.8901H128.858V62.3582Z" fill="black"/>
<path d="M172.495 31.0353V38.6079H191.472V52.9786H172.495V61.5838H194.06V76.815H153.344V15.8901H194.06V31.0353H172.495Z" fill="black"/>
<path d="M240.44 67.6074H220.082L217.063 76.815H196.964L219.306 15.8901H241.389L263.645 76.815H243.459L240.44 67.6074ZM235.782 53.2367L230.261 36.2845L224.741 53.2367H235.782Z" fill="black"/>
<path d="M311.127 15.8901V31.0353H287.146V39.4684H304.398V53.8391H287.146V76.815H267.996V15.8901H311.127Z" fill="black"/>
</svg>
