<svg width="105" height="30" viewBox="0 0 105 30" fill="none" xmlns="http://www.w3.org/2000/svg">
<g clip-path="url(#clip0)">
<path fill-rule="evenodd" clip-rule="evenodd" d="M24.751 3.59855C20.0551 -0.41663 13.157 -1.25322 7.50144 2.01179C4.40751 3.79796 2.19076 6.51992 1.00233 9.6137C4.13286 12.2897 8.73101 12.8471 12.501 10.6706L24.751 3.59855ZM20.0006 29.1444C25.826 27.0856 29.9997 21.5303 29.9997 15.0003C29.9997 11.4279 28.7506 8.14733 26.6653 5.5713C22.7824 6.94423 20.0006 10.6474 20.0006 15.0003L20.0006 29.1444ZM0.251277 12.2573C-0.878291 18.3313 1.84623 24.7232 7.50178 27.9882C10.5957 29.7744 14.0615 30.333 17.3352 29.8153C18.0876 25.7663 16.2712 21.5058 12.5013 19.3294L0.251277 12.2573ZM48.3462 20.2542H42.2863V5H35.9998V25H48.3462V20.2542ZM56.611 12.4576V9.97175H63.6904V5H50.3245V25H63.6904V20H56.611V17.1751H62.8408V12.4576H56.611ZM72.2328 21.9774L71.2416 25H64.6436L71.9779 5H79.2272L86.5331 25H79.9068L78.9157 21.9774H72.2328ZM77.3866 17.2599L75.5742 11.6949L73.7619 17.2599H77.3866ZM102.12 9.97175V5H87.9614V25H94.2479V17.4576H99.9114V12.7401H94.2479V9.97175H102.12Z" fill="#212121"/>
</g>
<defs>
<clipPath id="clip0">
<rect width="105" height="30" fill="white"/>
</clipPath>
</defs>
</svg>
